<?xml version="1.0" encoding="UTF-8"?>
<svg width="452px" height="34px" viewBox="0 0 452 34" version="1.1" xmlns="http://www.w3.org/2000/svg" xmlns:xlink="http://www.w3.org/1999/xlink">
    <!-- Generator: Sketch 48.2 (47327) - http://www.bohemiancoding.com/sketch -->
    <title>JUMPING FROG</title>
    <desc>Created with Sketch.</desc>
    <defs></defs>
    <g id="Artboard-Copy-7" stroke="none" stroke-width="1" fill="none" fill-rule="evenodd" transform="translate(-168.000000, -258.000000)">
        <g id="Group" transform="translate(168.000000, 258.000000)" fill="#1F1F1F">
            <path d="M0.884,30.456 L3.86,25.224 C5.108,26.424 6.74,27.528 8.948,27.528 C11.972,27.528 13.94,25.512 13.94,22.392 L13.94,0.984 L20.756,0.984 L20.756,22.488 C20.756,30.072 16.052,33.576 9.476,33.576 C6.212,33.576 3.188,32.712 0.884,30.456 Z M36.092,20.232 L36.092,0.984 L43.004,0.984 L43.004,19.992 C43.004,24.456 45.452,27.528 50.444,27.528 C55.34,27.528 57.788,24.456 57.788,19.992 L57.788,0.984 L64.7,0.984 L64.7,20.184 C64.7,28.152 60.14,33.576 50.444,33.576 C40.652,33.576 36.092,28.104 36.092,20.232 Z M107.876,33 L107.876,9.96 L98.852,33 L95.876,33 L86.852,9.96 L86.852,33 L80.036,33 L80.036,0.984 L89.588,0.984 L97.364,20.952 L105.14,0.984 L114.74,0.984 L114.74,33 L107.876,33 Z M130.076,33 L130.076,0.984 L145.052,0.984 C152.012,0.984 155.804,5.688 155.804,11.304 C155.804,16.872 151.964,21.528 145.052,21.528 L136.892,21.528 L136.892,33 L130.076,33 Z M148.844,11.256 C148.844,8.616 146.828,6.84 144.14,6.84 L136.892,6.84 L136.892,15.672 L144.14,15.672 C146.828,15.672 148.844,13.944 148.844,11.256 Z M169.028,33 L169.028,0.984 L175.844,0.984 L175.844,33 L169.028,33 Z M213.26,33 L197.996,11.496 L197.996,33 L191.18,33 L191.18,0.984 L198.188,0.984 L213.02,21.72 L213.02,0.984 L219.836,0.984 L219.836,33 L213.26,33 Z M233.636,17.016 C233.636,6.888 241.316,0.456 250.676,0.456 C257.3,0.456 261.476,3.672 263.924,7.464 L258.26,10.536 C256.772,8.28 254.036,6.504 250.676,6.504 C244.868,6.504 240.644,10.968 240.644,17.016 C240.644,23.064 244.868,27.528 250.676,27.528 C253.604,27.528 256.196,26.328 257.588,25.08 L257.588,21.192 L249.044,21.192 L249.044,15.336 L264.308,15.336 L264.308,27.576 C261.044,31.224 256.484,33.624 250.676,33.624 C241.316,33.624 233.636,27.096 233.636,17.016 Z M300.02,33 L300.02,0.984 L322.676,0.984 L322.676,6.84 L306.836,6.84 L306.836,13.8 L322.34,13.8 L322.34,19.656 L306.836,19.656 L306.836,33 L300.02,33 Z M354.524,33 L348.236,21.528 L343.244,21.528 L343.244,33 L336.428,33 L336.428,0.984 L351.404,0.984 C358.076,0.984 362.156,5.352 362.156,11.304 C362.156,16.968 358.604,19.992 355.148,20.808 L362.348,33 L354.524,33 Z M355.196,11.256 C355.196,8.568 353.132,6.84 350.396,6.84 L343.244,6.84 L343.244,15.672 L350.396,15.672 C353.132,15.672 355.196,13.944 355.196,11.256 Z M374.756,17.016 C374.756,7.368 381.812,0.456 391.46,0.456 C401.156,0.456 408.212,7.368 408.212,17.016 C408.212,26.664 401.156,33.576 391.46,33.576 C381.812,33.576 374.756,26.664 374.756,17.016 Z M401.204,17.016 C401.204,11.016 397.364,6.504 391.46,6.504 C385.556,6.504 381.764,11.016 381.764,17.016 C381.764,22.968 385.556,27.528 391.46,27.528 C397.364,27.528 401.204,22.968 401.204,17.016 Z M420.476,17.016 C420.476,6.888 428.156,0.456 437.516,0.456 C444.14,0.456 448.316,3.672 450.764,7.464 L445.1,10.536 C443.612,8.28 440.876,6.504 437.516,6.504 C431.708,6.504 427.484,10.968 427.484,17.016 C427.484,23.064 431.708,27.528 437.516,27.528 C440.444,27.528 443.036,26.328 444.428,25.08 L444.428,21.192 L435.884,21.192 L435.884,15.336 L451.148,15.336 L451.148,27.576 C447.884,31.224 443.324,33.624 437.516,33.624 C428.156,33.624 420.476,27.096 420.476,17.016 Z" id="JUMPING-FROG"></path>
        </g>
    </g>
</svg>